PathFileType	4	(X/Y/Z)	OpenSim_Sub11_EMGPreOp_Magnet.trc
DataRate	CameraRate	NumFrames	NumMarkers	Units	OrigDataRate	OrigDataStartFrame	OrigNumFrames
100	100	33	8	m	100	3679	5885
Frame#	Time	torso_imu_offset_imu	pelvis_imu_offset_imu	tibia_r_imu_offset_imu	femur_r_imu_offset_imu	tibia_l_imu_offset_imu	femur_l_imu_offset_imu	toes_r_imu_offset_imu	toes_l_imu_offset_imu
				X1	Y1	Z1	X2	Y2	Z2	X3	Y3	Z3	X4	Y4	Z4	X5	Y5	Z5	X6	Y6	Z6	X7	Y7	Z7	X8		Y8	Z8	

3679	36.78000000	-0.92568285	-0.21595339	0.10774121	-0.49437498	0.05297022	-0.68903041	-0.60523037	-0.54496902	-0.23651534	-0.54467017	-0.64213926	0.04503210	-0.71066751	0.41092290	0.15148075	-0.72823235	-0.01828118	0.35943495	-0.65098254	-0.41006093	-0.44877433	-0.72015872	-0.03433361	-0.34787099
3680	36.79000000	-0.91858345	-0.22126564	0.10204196	-0.49192001	0.05317274	-0.68791758	-0.60196492	-0.55139890	-0.24053126	-0.53976082	-0.64244808	0.04195838	-0.71384079	0.40256911	0.15833698	-0.72344709	-0.00516896	0.36461040	-0.65118943	-0.40916106	-0.44852800	-0.72404037	-0.04223299	-0.33835208
3681	36.80000000	-0.91931019	-0.21778085	0.09726316	-0.49319377	0.04806115	-0.68885346	-0.59823084	-0.55860416	-0.24238571	-0.53640880	-0.64961247	0.03818342	-0.71572028	0.39068147	0.16198199	-0.71940455	-0.00217974	0.37142325	-0.65306563	-0.41531677	-0.44671315	-0.72278819	-0.05689284	-0.33691285
3682	36.81000000	-0.92348071	-0.21621567	0.10361503	-0.49479161	0.05645245	-0.69190619	-0.59304529	-0.55876006	-0.24517802	-0.53440404	-0.64494599	0.03440740	-0.71629939	0.39144943	0.16239611	-0.71705377	0.01534486	0.37589238	-0.65345909	-0.40854064	-0.44888446	-0.72470525	-0.06047413	-0.33247731
3683	36.82000000	-0.92561212	-0.21748735	0.10415332	-0.50319469	0.05869019	-0.69017682	-0.58938580	-0.56178214	-0.24131014	-0.54268872	-0.64603619	0.03022176	-0.72837186	0.39304859	0.16276512	-0.72264181	0.02766301	0.37693137	-0.66342681	-0.40865855	-0.44902984	-0.73479253	-0.06486245	-0.32884424
3684	36.83000000	-0.92673642	-0.21768310	0.10228142	-0.49798706	0.06206633	-0.68710427	-0.58128978	-0.56752023	-0.24569618	-0.53231980	-0.64746302	0.02250035	-0.72025145	0.39371807	0.16426453	-0.71069243	0.03877269	0.38313608	-0.65500074	-0.40642864	-0.44855320	-0.72459919	-0.05754592	-0.33264883
3685	36.84000000	-0.92399241	-0.21428620	0.09361163	-0.50148852	0.05178079	-0.68061256	-0.57753846	-0.56227030	-0.24408226	-0.53414387	-0.65906853	0.02600558	-0.72445500	0.38670952	0.17342443	-0.71369718	0.04026609	0.39208476	-0.66044707	-0.41482778	-0.44058690	-0.72831668	-0.07531786	-0.32585140
3686	36.85000000	-0.92216721	-0.21751987	0.09561853	-0.50209604	0.06450524	-0.68235200	-0.57433420	-0.56590813	-0.25171054	-0.53459162	-0.64952186	0.02410208	-0.72314047	0.39568250	0.17505159	-0.70959052	0.05639411	0.39199374	-0.66320050	-0.40540916	-0.44111436	-0.73053453	-0.06880590	-0.32185976
3687	36.86000000	-0.91896718	-0.21884728	0.09100899	-0.49924769	0.05826743	-0.69394524	-0.57421458	-0.57257473	-0.25251246	-0.53353369	-0.65453965	0.01178500	-0.72354614	0.38906007	0.16888228	-0.70654123	0.05747936	0.38757201	-0.66187833	-0.41015455	-0.45093855	-0.73068558	-0.06471005	-0.33577449
3688	36.87000000	-0.91593924	-0.21883746	0.09263466	-0.49776004	0.05143040	-0.68983114	-0.57084233	-0.57597133	-0.26202735	-0.52923795	-0.65946604	0.01662322	-0.72178465	0.38420820	0.17913134	-0.70474210	0.05926263	0.39352262	-0.66027549	-0.41346051	-0.44204813	-0.73004868	-0.06498018	-0.33025524
3689	36.88000000	-0.91964647	-0.21824355	0.08899046	-0.49335009	0.05477124	-0.69312198	-0.56253357	-0.58338406	-0.26365030	-0.52168609	-0.65802299	0.01001523	-0.71254275	0.38305778	0.17522962	-0.69735085	0.06404555	0.38705361	-0.65840239	-0.41359096	-0.44601189	-0.72335746	-0.06552305	-0.33441050
3690	36.89000000	-0.92335634	-0.21603948	0.08324961	-0.51340715	0.05774566	-0.68410230	-0.55299603	-0.58545823	-0.26504634	-0.54334595	-0.65164385	0.01686563	-0.73048753	0.39255329	0.18293967	-0.71673768	0.07104468	0.39277531	-0.68008871	-0.40745600	-0.44048757	-0.74525200	-0.06242018	-0.32319187
3691	36.90000000	-0.92577331	-0.21772943	0.09170590	-0.50357764	0.05526853	-0.68582291	-0.55083931	-0.58820889	-0.26751841	-0.53376407	-0.65604201	0.01459144	-0.72362006	0.38946599	0.17977461	-0.70599519	0.07251208	0.39273956	-0.67185890	-0.40964017	-0.43890072	-0.73649275	-0.07275258	-0.32496571
3692	36.91000000	-0.92616330	-0.21683167	0.08865351	-0.49555440	0.05284731	-0.68424618	-0.54966884	-0.58596724	-0.26736390	-0.52357223	-0.65943758	0.01622871	-0.71141862	0.39042388	0.18178581	-0.69385434	0.07443660	0.39815880	-0.66159872	-0.41350156	-0.43734010	-0.72570048	-0.07762318	-0.32207229
3693	36.92000000	-0.92204392	-0.21286031	0.07934995	-0.50372295	0.04988473	-0.69091974	-0.54151035	-0.59058137	-0.27833809	-0.53367843	-0.66154822	0.01358302	-0.71987689	0.39092765	0.17603393	-0.70119033	0.08035261	0.39675614	-0.67215330	-0.41457122	-0.43835096	-0.73532386	-0.08042097	-0.32515990
3694	36.93000000	-0.92374399	-0.21612388	0.08026500	-0.50178712	0.05383245	-0.68068087	-0.53493681	-0.59408892	-0.28361933	-0.53206002	-0.65604957	0.01840041	-0.71477105	0.39762853	0.18450996	-0.69655464	0.08921871	0.40649992	-0.67107041	-0.40843227	-0.43013516	-0.73353475	-0.07575716	-0.31958983
3695	36.94000000	-0.92375477	-0.21166457	0.07773719	-0.50129176	0.05859580	-0.68655052	-0.53264408	-0.59395321	-0.28028021	-0.53470420	-0.64800155	0.01201547	-0.71625398	0.40521897	0.18233463	-0.69311736	0.09925142	0.40280100	-0.67360588	-0.40563916	-0.43174903	-0.73500635	-0.06869776	-0.32565786
3696	36.95000000	-0.92151218	-0.21254391	0.07843283	-0.49731197	0.05125081	-0.68246350	-0.52028285	-0.60373117	-0.28322780	-0.53249423	-0.65295107	0.01226769	-0.70773514	0.39937812	0.18198505	-0.68864237	0.09626083	0.40398900	-0.66777108	-0.41324786	-0.42877576	-0.73055526	-0.07667456	-0.32491554
3697	36.96000000	-0.92486851	-0.21164845	0.08205561	-0.50645944	0.05588749	-0.69597926	-0.50952431	-0.61093183	-0.29106882	-0.54365853	-0.65224755	0.00508337	-0.71598134	0.40106011	0.17560467	-0.69234148	0.10293641	0.39671699	-0.67732707	-0.41214187	-0.43797445	-0.73984779	-0.07257623	-0.33639139
3698	36.97000000	-0.92321075	-0.21060106	0.08421405	-0.50093267	0.05528950	-0.68641577	-0.51235640	-0.61326167	-0.29158017	-0.54273677	-0.65167615	0.01288699	-0.71387737	0.39736989	0.18441133	-0.68873578	0.10629827	0.40860129	-0.67704862	-0.41774861	-0.42861858	-0.73740259	-0.07408031	-0.32751815
3699	36.98000000	-0.92474359	-0.21257314	0.07944690	-0.49830834	0.05473954	-0.68513035	-0.50449801	-0.61445543	-0.29729044	-0.54391829	-0.64857398	0.01273262	-0.71230902	0.39508533	0.18818264	-0.68524788	0.11179438	0.41134113	-0.67342136	-0.42195620	-0.42491347	-0.73311129	-0.07296013	-0.32976770
3700	36.99000000	-0.92276577	-0.21225509	0.08158746	-0.49960007	0.05808864	-0.69034980	-0.49232157	-0.62219975	-0.30535707	-0.54898048	-0.64178763	0.01159099	-0.71107719	0.39562552	0.19204986	-0.67975346	0.11831523	0.41356771	-0.67321854	-0.42592998	-0.42584947	-0.73715854	-0.07103042	-0.33103814
3701	37	-0.92682640	-0.21189520	0.08117729	-0.49938133	0.06512303	-0.69008639	-0.48443112	-0.62520343	-0.30193746	-0.55285003	-0.63368805	0.01238321	-0.71313317	0.39987678	0.19544785	-0.67671361	0.13115846	0.41375964	-0.67490773	-0.42417538	-0.42241585	-0.73924205	-0.06839249	-0.33465485
3702	37.01000000	-0.92864815	-0.20984359	0.07981821	-0.50054657	0.05567799	-0.68883150	-0.47598078	-0.62537678	-0.30278275	-0.56010001	-0.63982245	0.01632600	-0.71508226	0.38465995	0.20166069	-0.67588427	0.12327489	0.41944391	-0.67757370	-0.43852159	-0.41654447	-0.73948757	-0.08021178	-0.33452949
3703	37.02000000	-0.92443418	-0.21077333	0.08423076	-0.49905003	0.06265289	-0.69067001	-0.46676042	-0.63431028	-0.31101098	-0.56471441	-0.63084832	0.01548370	-0.71246279	0.38716007	0.20624994	-0.67389508	0.12760165	0.42329864	-0.68014722	-0.43467100	-0.41124229	-0.74101063	-0.07051359	-0.33470854
3704	37.03000000	-0.92540970	-0.21299467	0.08098911	-0.50335281	0.06831050	-0.68872901	-0.46016087	-0.63579627	-0.31937213	-0.57378778	-0.62131068	0.02013207	-0.71698836	0.38475072	0.21423650	-0.67256959	0.13319181	0.42941389	-0.68524502	-0.43692088	-0.40040501	-0.74516734	-0.06915229	-0.33000154
3705	37.04000000	-0.92358605	-0.21509832	0.08515208	-0.49487435	0.07169205	-0.69950657	-0.45343344	-0.63873806	-0.31685576	-0.57509763	-0.61447354	0.00934903	-0.71116006	0.38504987	0.20727427	-0.66192521	0.13905645	0.42586777	-0.68184464	-0.44135474	-0.40648045	-0.74184681	-0.07283953	-0.34133050
3706	37.05000000	-0.91985998	-0.21672312	0.08676197	-0.49940152	0.07935645	-0.68814051	-0.43786090	-0.64844105	-0.32543251	-0.59026616	-0.60073871	0.01839552	-0.71993595	0.38837468	0.21765601	-0.66765695	0.14832292	0.43937311	-0.69403798	-0.43502069	-0.39032061	-0.74903550	-0.06702259	-0.33655801
3707	37.06000000	-0.92100083	-0.21657326	0.09196510	-0.49916556	0.07428547	-0.68843571	-0.42591015	-0.65178020	-0.32709415	-0.59170956	-0.60382690	0.01983011	-0.71609327	0.37591045	0.22449515	-0.65785765	0.14409909	0.44280647	-0.69403372	-0.44590751	-0.37827717	-0.74612552	-0.07436341	-0.33347420
3708	37.07000000	-0.92324553	-0.21630182	0.08864763	-0.49710684	0.08242538	-0.68994635	-0.41660981	-0.65571783	-0.33131005	-0.59928671	-0.59167669	0.01525271	-0.71734318	0.37876651	0.22220875	-0.65515098	0.15345105	0.44558427	-0.69797948	-0.44695742	-0.36642307	-0.74806012	-0.07066305	-0.33422342
3709	37.08000000	-0.92072089	-0.21765610	0.09047793	-0.49314225	0.09084593	-0.69618783	-0.40982083	-0.66170198	-0.33275266	-0.60692934	-0.57508401	0.00867137	-0.71786010	0.38068711	0.22001138	-0.64965046	0.16248187	0.44585051	-0.70168696	-0.44435235	-0.36088732	-0.74776101	-0.06854273	-0.33760007
3710	37.09000000	-0.91504792	-0.22168948	0.09067861	-0.49150123	0.08476347	-0.68996720	-0.39727364	-0.67205158	-0.32605200	-0.61785534	-0.57690982	0.01327736	-0.71576614	0.36974691	0.23081923	-0.64878507	0.15486680	0.45503341	-0.70989080	-0.45613677	-0.34038994	-0.75021171	-0.08003753	-0.33168569
3711	37.10000000	-0.91606479	-0.21964220	0.09234047	-0.48722210	0.09087469	-0.69278510	-0.38258120	-0.67663721	-0.31880220	-0.62486131	-0.56150293	0.00965310	-0.71588159	0.37246242	0.22971128	-0.64691464	0.16378636	0.45299665	-0.71565562	-0.45784755	-0.32117169	-0.75014296	-0.07593334	-0.33414806
